<?xml version="1.0" encoding="utf-8"?>
<!-- Generator: Adobe Illustrator 24.1.2, SVG Export Plug-In . SVG Version: 6.00 Build 0)  -->
<svg version="1.1" id="Layer_1" xmlns="http://www.w3.org/2000/svg" xmlns:xlink="http://www.w3.org/1999/xlink" x="0px" y="0px"
	 viewBox="0 0 1920 1080" style="enable-background:new 0 0 1920 1080;" xml:space="preserve">
<style type="text/css">
	.st0{fill:#FFFFFF;}
</style>
<path class="st0" d="M1908.95,515.22c-21.41-17.15-52.59,34.31-73.7,19.06c-14.41-10.41,9.59-44.81,17.8-61.21
	c4.04-8.08-11.73-15.82-19.24-10.74c-59.06,39.94-121.62,91.94-190.29,56.17c-3.17-1.65-5.28-5.01-5.43-8.56
	c-6.39-144.77,187.81-89.18,206.6-98.43c18.55-2.22,22.65-23.92,5.44-27.95c-268.28-62.9-228.44,144.41-304.57,129.76
	c-41.7,5.24-17.75-76.71-42.85-81.27c-11.34-2.06-106.06,89.24-118.78,80.32c-16.31-11.44,38.05-107.53,14.07-111.34
	c-13.31-2.12-117.99,73.1-156.42,96.31c-4.48,2.71-9.65-2.27-7.04-6.79c8.5-25.38,27.63-66.11,31.56-98.25
	c0.61-4.99-1.42-9.91-5.12-13.34c-8.26-7.69-23.52-1.86-28.94,2.54c-49.24,40.02-105,142.39-159.49,162.68
	c-38.27,14.25-36.97-12.22-50.03-67.21c-1.77-7.45-10.93-10.34-16.68-5.24c-71.08,63.18-183.12,95.36-202.28,35.4
	c2.82-144.89,246.72-54.32,245.57-94.34c-1.08-37.58-207.2-60.99-266.95,31.51c-32.4,50.15-110.33,80.9-162.35,88.73
	c-6.73,1.01-11.61-6.28-8.33-12.21c31.66-57.1,65.97-94.97,129.42-194.81c190.98-223.49,243.09-192.5,266.54-221.24
	c3.71-4.54,3.53-11.11-0.32-15.53C899.42-34.6,602.18,466.29,562.4,534.71c-2.34,4.03-7.64,5.08-11.36,2.25
	c-49.25-37.56-349.23-251.68-529.61-42.23c-92.99,258.9,409.78,116.65,484.93,113.83c3.88-0.15,6.76,3.5,5.48,7.13
	c-25.29,71.75-205.43,333-205.43,398.4c0,8.38,11.79,14.97,19.43,11.4C775.18,815.35,648.04,639.26,612.1,592.12
	c-4.78-6.27-4.12-17.05,3.37-19.58c48.03-16.18,88.22-32.06,151.63-53.03c47.3,102.23,170,40.41,212.79,18.18
	c7.12-3.7,19.57,7.6,22.69,14.95c11.47,27.01,39.31,37.38,60.93,31.61c56.55-15.1,76-43.95,105.92-72.26
	c2.53-2.4,6.88-0.67,7.01,2.8c0.7,18.34-6.67,33.29-4.14,43.31c0.63,2.5,2.46,4.51,4.82,5.57c6.4,2.89,13.09,1.25,22.05-0.84
	c3.22-0.75,6.45-1.71,9.52-2.92c61.91-24.37,105.12-63.98,129.22-73.01c3.08-1.16,6.51,0.94,6.88,4.19
	c3.17,27.67-6.08,49.6,16.57,61.3c29.31,15.14,100.48-43.17,114.93-55.43c1.36-1.16,3.36-0.86,4.31,0.66
	c4.36,7.02,25.02,46.16,51.04,51.4c34.3,6.91,42.27-9.28,65.87-11.61c2.96-0.29,5.9,0.83,8.22,2.68
	c45.82,36.53,97.36,36.54,174.99,1.97c3.04-1.36,6.61-0.15,8.29,2.71C1837.43,627.16,1929.94,532.03,1908.95,515.22z M513.22,560.48
	C-268.91,797.13,70.67,200.26,513.22,560.48L513.22,560.48z M395.94,942.96c-4.86,3-12.86-1.27-11.04-6.65
	c23.49-69.57,136.26-253.77,182.86-305.77c8.29-8.14,23.25-7.62,28.62,2.66C619.98,678.33,675.65,770.45,395.94,942.96z"/>
</svg>
